<?xml version="1.0"?>
<svg xmlns="http://www.w3.org/2000/svg" id="bold" height="512px" viewBox="0 0 32 32" width="512px" class=""><g><path d="m26 32h-20c-3.314 0-6-2.686-6-6v-20c0-3.314 2.686-6 6-6h20c3.314 0 6 2.686 6 6v20c0 3.314-2.686 6-6 6z" fill="#fff9dd" data-original="#FFF9DD" class="active-path" style="fill:#CEE0FF" data-old_color="#fff9dd"/><path d="m22.167 11.167h-2.833v-1.334c-.001-.735-.599-1.333-1.334-1.333h-4c-.735 0-1.333.598-1.333 1.333v1.333h-2.834c-1.011.001-1.833.823-1.833 1.834v7.667c0 1.011.822 1.833 1.833 1.833h12.333c1.011 0 1.833-.822 1.833-1.833v-7.667c.001-1.011-.821-1.833-1.832-1.833zm-8.167-1.334h4v1.333h-4zm6 7.5c0 .643-.523 1.167-1.167 1.167h-1.5v1.5c0 .643-.523 1.167-1.167 1.167h-.333c-.643 0-1.167-.523-1.167-1.167v-1.5h-1.5c-.643 0-1.166-.523-1.166-1.167v-.333c0-.643.523-1.167 1.167-1.167h1.5v-1.5c0-.643.523-1.167 1.167-1.167h.333c.643 0 1.167.523 1.167 1.167v1.5h1.5c.643 0 1.166.524 1.166 1.167z" fill="#ffd200" data-original="#FFD200" class="" data-old_color="#ffd200" style="fill:#3C82FF"/></g> </svg>
